<svg width="119" height="136" viewBox="0 0 119 136" fill="none" xmlns="http://www.w3.org/2000/svg">
<path d="M59.4562 92C58.7256 92 58.1119 91.7671 57.6443 91.2723C57.1475 90.7774 56.9138 90.1953 56.9138 89.4676V84.4027H41.5424C40.8118 84.4027 40.1981 84.1698 39.7306 83.6749C39.2338 83.1801 39 82.5979 39 81.8702C39 81.1425 39.2338 80.5603 39.7306 80.0655C40.2274 79.5706 40.8411 79.3378 41.5424 79.3378H77.4284C78.1589 79.3378 78.7726 79.5706 79.2694 80.0655C79.7662 80.5603 80 81.1425 80 81.8702C80 82.5979 79.7662 83.1801 79.2694 83.6749C78.7726 84.1698 78.1589 84.4027 77.4576 84.4027H62.0862V89.4676C62.0862 90.1953 61.8525 90.7774 61.3557 91.2723C60.8589 91.7671 60.2452 92 59.5438 92H59.4562ZM51.7413 65.4821C52.4718 65.4821 53.0855 65.2492 53.5823 64.7544C54.0791 64.2596 54.3129 63.6774 54.3129 62.9497C54.3129 62.222 54.0791 61.6398 53.5823 61.1449C53.0855 60.6501 52.4718 60.4172 51.7705 60.4172C51.0691 60.4172 50.4262 60.6501 49.9587 61.1449C49.4619 61.6398 49.2281 62.222 49.2281 62.9497C49.2281 63.6774 49.4619 64.2596 49.9587 64.7544C50.4555 65.2492 51.0691 65.4821 51.7705 65.4821H51.7413ZM67.1418 65.4821C67.8724 65.4821 68.4861 65.2492 68.9829 64.7544C69.4797 64.2596 69.7135 63.6774 69.7135 62.9497C69.7135 62.222 69.4797 61.6398 68.9829 61.1449C68.4861 60.6501 67.8724 60.4172 67.1711 60.4172C66.4697 60.4172 65.8268 60.6501 65.3592 61.1449C64.8624 61.6398 64.6287 62.222 64.6287 62.9497C64.6287 63.6774 64.8624 64.2596 65.3592 64.7544C65.856 65.2492 66.4697 65.4821 67.1711 65.4821H67.1418ZM44.0556 76.8636C43.325 76.8636 42.7113 76.6307 42.2438 76.1358C41.747 75.641 41.5132 75.0588 41.5132 74.3311V58.9909C41.5132 58.6998 41.5132 58.4087 41.5716 58.1468C41.6301 57.8848 41.6885 57.6228 41.7762 57.3608L45.2245 47.4348C45.5752 46.416 46.1889 45.601 47.0948 44.9606C48.0007 44.3202 48.9943 44 50.1048 44H68.8076C69.918 44 70.9116 44.3202 71.8175 44.9606C72.7235 45.601 73.3371 46.416 73.6878 47.4348L77.1361 57.3608C77.2238 57.6228 77.2823 57.8848 77.3407 58.1468C77.3699 58.4087 77.3991 58.6998 77.3991 58.9909V74.3311C77.3991 75.0588 77.1654 75.641 76.6686 76.1358C76.1718 76.6307 75.5581 76.8636 74.8275 76.8636C74.0969 76.8636 73.4833 76.6307 73.0157 76.1358C72.5189 75.641 72.2851 75.0588 72.2851 74.3311V71.7987H46.6565V74.3311C46.6565 75.0588 46.4227 75.641 45.9259 76.1358C45.4291 76.6307 44.8154 76.8636 44.114 76.8636H44.0556ZM48.2929 54.1298H70.5902L68.8076 49.0649H50.1048L48.3222 54.1298H48.2929Z" fill="#3DB3A9"/>
<path d="M30.1952 31.9068C38.0457 24.2293 48.5929 19.9406 59.5596 20.0006C70.5263 20.0606 81.0436 24.4392 88.8042 32.2067C96.5647 39.9743 100.939 50.5009 100.999 61.4774C101.059 72.4539 96.7745 83.0105 89.1038 90.868L67.0805 112.911C65.1029 114.89 62.4361 116 59.6495 116C56.8629 116 54.1961 114.89 52.2185 112.911L30.1952 90.868C22.3747 83.0405 18 72.4539 18 61.3874C18 50.321 22.3747 39.7343 30.1952 31.9068Z" stroke="#3DB3A9" stroke-width="6" stroke-linejoin="round"/>
<path d="M20.3093 19.8758C30.8081 9.63903 44.9134 3.92085 59.5797 4.00083C74.246 4.0808 88.3113 9.91894 98.6899 20.2756C109.069 30.6323 114.919 44.6679 114.999 59.3032C115.079 73.9385 109.349 88.014 99.0906 98.4907L69.6378 127.881C66.993 130.52 63.4266 132 59.6999 132C55.9733 132 52.4069 130.52 49.7621 127.881L20.3093 98.4907C9.8505 88.054 4 73.9385 4 59.1832C4 44.4279 9.8505 30.3124 20.3093 19.8758Z" stroke="#3DB3A9" stroke-width="8" stroke-linejoin="round"/>
</svg>
